<svg width="713" height="430" viewBox="0 0 713 430" fill="none" xmlns="http://www.w3.org/2000/svg">
<path d="M226.978 168.484C225.298 164.631 223.551 160.537 221.738 156.204C211.651 132.097 208.804 106.191 213.198 78.4841C217.238 53.0174 226.694 29.794 241.568 8.81405C243.468 6.13405 245.398 3.69071 247.358 1.48405C249.388 -0.805953 253.248 0.194048 255.568 1.45405C260.768 4.29405 263.268 9.51406 264.508 15.3241C270.018 41.3041 281.728 65.134 296.638 87.434C296.782 87.6521 297.004 87.8078 297.259 87.8707C297.515 87.9336 297.785 87.8991 298.018 87.774C308.671 81.9207 319.661 76.7274 330.988 72.1941C341.568 67.9541 351.768 64.8841 362.938 66.8241C366.578 67.4574 372.108 69.2474 379.528 72.1941C392.074 77.1741 403.551 82.6441 413.958 88.6041C414.079 88.673 414.221 88.6939 414.358 88.6624C414.495 88.631 414.616 88.5496 414.698 88.434C427.184 70.5607 436.791 51.5674 443.518 31.4541C445.524 25.4674 446.958 19.9007 447.818 14.7541C448.324 11.7274 449.254 9.25738 450.608 7.34405C452.688 4.38405 459.658 -1.94595 463.588 0.584053C464.828 1.37739 465.871 2.30407 466.718 3.36407C470.291 7.8574 473.774 12.974 477.168 18.714C489.278 39.204 497.428 62.534 500.008 86.334C502.514 109.381 499.364 132.327 490.558 155.174C488.831 159.667 487.118 163.817 485.418 167.624C485.064 168.397 485.234 168.534 485.928 168.034C490.581 164.667 495.294 161.441 500.068 158.354C518.601 146.361 536.848 134.864 554.808 123.864C555.081 123.695 555.299 123.449 555.436 123.158C555.573 122.867 555.622 122.543 555.578 122.224C553.808 109.864 559.158 97.3141 572.638 96.0741C579.404 95.4474 585.348 97.3841 590.468 101.884C590.49 101.905 590.519 101.918 590.549 101.922C590.58 101.926 590.611 101.921 590.638 101.906C590.665 101.892 590.688 101.87 590.702 101.843C590.716 101.816 590.722 101.785 590.718 101.754C590.698 101.627 590.721 101.534 590.788 101.474C590.854 101.414 590.864 101.347 590.818 101.274C588.964 98.154 587.451 95.0141 586.278 91.8541C586.03 91.186 586.022 90.4525 586.255 89.7793C586.489 89.106 586.949 88.535 587.558 88.1641C590.651 86.2641 593.951 84.594 597.458 83.154C630.631 69.494 665.051 60.8441 700.718 57.2041C701.004 57.1774 701.254 57.224 701.468 57.344C701.574 57.4075 701.651 57.5115 701.681 57.6333C701.711 57.755 701.692 57.8847 701.628 57.994C686.178 83.954 666.648 105.604 644.498 126.494C637.898 132.714 631.984 137.601 626.758 141.154C625.471 142.027 624.198 141.894 622.938 140.754C619.704 137.814 616.531 134.844 613.418 131.844C612.798 131.251 612.541 131.381 612.648 132.234C613.918 142.344 611.718 152.744 603.628 159.274C596.248 165.234 586.618 165.094 578.538 160.204C577.431 159.537 576.528 158.657 575.828 157.564C575.621 157.231 575.351 157.171 575.018 157.384C548.384 174.204 519.088 192.391 487.128 211.944C482.734 214.637 478.558 217.421 474.598 220.294C474.434 220.414 474.318 220.589 474.27 220.786C474.222 220.984 474.246 221.192 474.338 221.374C478.688 229.884 485.918 238.054 494.588 241.644C498.801 243.391 503.498 243.211 508.678 241.104C513.351 239.204 517.668 237.004 521.628 234.504C521.759 234.421 521.907 234.369 522.061 234.35C522.215 234.331 522.371 234.346 522.518 234.395C522.665 234.444 522.8 234.525 522.912 234.632C523.025 234.739 523.112 234.869 523.168 235.014C523.828 236.714 523.998 238.451 523.678 240.224C521.344 253.131 514.268 261.584 502.448 265.584C494.728 268.204 485.928 269.684 477.508 271.314C477.008 271.407 476.971 271.597 477.398 271.884C488.998 279.684 499.128 286.091 507.788 291.104C529.761 303.824 552.028 316.574 574.588 329.354C574.649 329.389 574.717 329.41 574.787 329.418C574.857 329.426 574.927 329.419 574.995 329.398C575.062 329.378 575.125 329.344 575.178 329.298C575.232 329.253 575.276 329.197 575.308 329.134C579.248 321.114 588.958 306.024 598.358 304.084C602.918 303.137 605.811 305.221 607.038 310.334C607.851 313.721 608.234 317.154 608.188 320.634C608.181 321.067 608.394 321.254 608.828 321.194C623.718 319.134 637.708 321.144 650.588 328.464C662.398 335.174 671.798 346.934 679.418 358.594C688.191 372.021 695.671 386.164 701.858 401.024C705.418 409.591 709.024 418.684 712.678 428.304C713.024 429.204 712.771 429.431 711.918 428.984C703.378 424.484 694.844 420.834 686.318 418.034C677.144 415.014 667.781 413.827 658.228 414.474C649.114 415.094 639.861 415.601 630.468 415.994C621.461 416.374 612.801 416.034 604.488 414.974C596.594 413.961 589.758 411.501 583.978 407.594C579.831 404.787 577.231 400.871 576.178 395.844C576.143 395.688 576.075 395.541 575.978 395.414C575.88 395.287 575.756 395.183 575.613 395.109C575.471 395.036 575.315 394.995 575.155 394.988C574.995 394.982 574.835 395.012 574.688 395.074C571.528 396.454 568.398 398.044 565.098 398.874C559.804 400.214 553.978 400.204 547.618 398.844C543.328 397.924 544.398 390.654 545.438 387.924C546.858 384.204 548.511 380.644 550.398 377.244C552.948 372.634 557.028 369.204 560.588 365.334C560.702 365.212 560.784 365.064 560.827 364.903C560.87 364.741 560.873 364.572 560.834 364.409C560.795 364.247 560.717 364.096 560.606 363.971C560.495 363.847 560.355 363.751 560.198 363.694C532.024 353.221 504.554 339.897 477.788 323.724C477.294 323.424 477.121 323.551 477.268 324.104C479.138 331.154 480.578 338.354 478.428 345.464C475.048 356.684 464.088 360.974 452.978 359.834C442.271 358.734 432.568 354.771 423.868 347.944C423.594 347.731 423.324 347.741 423.058 347.974C422.178 348.744 421.548 349.864 420.738 350.704C416.851 354.771 412.534 358.564 407.788 362.084C400.014 367.851 392.541 373.384 385.368 378.684C375.828 385.734 369.818 394.514 356.768 394.784C342.328 395.084 333.118 383.134 322.648 375.384C310.788 366.594 299.538 359.044 289.588 348.144C289.148 347.657 288.671 347.624 288.158 348.044C281.884 353.177 275.561 356.764 269.188 358.804C257.268 362.614 239.938 361.914 234.218 348.174C231.268 341.074 232.638 331.634 235.558 324.514C235.904 323.681 235.698 323.507 234.938 323.994C216.358 335.964 195.398 346.004 175.278 355.114C168.838 358.024 162.238 360.014 155.718 362.444C154.671 362.831 153.798 363.414 153.098 364.194C152.933 364.381 152.841 364.62 152.837 364.868C152.834 365.116 152.919 365.355 153.078 365.544C155.448 368.414 158.538 370.234 160.698 373.194C164.418 378.314 168.308 385.314 168.778 391.624C169.498 401.154 156.988 400.734 151.238 399.294C147.084 398.247 142.871 396.571 138.598 394.264C138.463 394.192 138.314 394.152 138.162 394.146C138.01 394.14 137.859 394.17 137.721 394.232C137.582 394.294 137.46 394.386 137.365 394.503C137.269 394.62 137.201 394.757 137.168 394.904C132.998 412.594 108.628 415.914 93.7777 415.954C83.1444 415.981 71.6544 415.507 59.3077 414.534C48.3944 413.674 38.5311 414.531 29.7177 417.104C19.5777 420.071 9.97773 424.171 0.917726 429.404C0.804393 429.464 0.70439 429.541 0.617723 429.634C0.497723 429.754 0.364396 429.771 0.217729 429.684C0.128612 429.633 0.0604594 429.552 0.0256058 429.457C-0.00924787 429.362 -0.0085007 429.258 0.0277267 429.164C2.98106 421.177 6.07106 413.241 9.29773 405.354C14.0844 393.641 19.9244 381.621 26.8177 369.294C33.5044 357.341 41.0211 347.121 49.3677 338.634C63.8577 323.894 83.7577 317.854 103.818 321.384C104.384 321.484 104.678 321.247 104.698 320.674C104.878 316.544 105.778 304.704 111.348 303.804C117.888 302.754 123.168 309.164 127.038 313.384C131.458 318.191 134.861 323.557 137.248 329.484C137.28 329.563 137.328 329.634 137.39 329.693C137.451 329.751 137.525 329.796 137.604 329.823C137.684 329.851 137.769 329.861 137.852 329.852C137.936 329.844 138.016 329.817 138.088 329.774C147.188 324.374 156.198 318.974 165.818 313.664C189.564 300.584 212.924 286.831 235.898 272.404C236.531 272.011 236.484 271.737 235.758 271.584C229.038 270.164 222.754 268.714 216.908 267.234C201.058 263.234 190.658 254.874 188.708 237.084C188.601 236.071 188.788 235.111 189.268 234.204C189.357 234.036 189.482 233.89 189.634 233.776C189.786 233.661 189.962 233.583 190.148 233.544C190.335 233.506 190.527 233.51 190.712 233.554C190.897 233.599 191.07 233.685 191.218 233.804C195.558 237.311 200.078 239.921 204.778 241.634C213.108 244.674 219.828 242.754 226.498 237.054C231.178 233.054 234.804 227.971 237.378 221.804C237.552 221.381 237.571 220.911 237.432 220.475C237.293 220.04 237.004 219.668 236.618 219.424L137.948 157.764C137.694 157.604 137.458 157.627 137.238 157.834C135.551 159.401 133.611 160.647 131.418 161.574C112.578 169.504 99.1377 154.104 99.9277 136.204C99.9877 134.864 100.064 133.477 100.158 132.044C100.224 131.057 99.9144 130.921 99.2277 131.634C96.6677 134.274 94.0111 136.931 91.2577 139.604C87.4477 143.304 83.9377 140.384 80.7977 137.844C63.9511 124.217 48.2477 108.504 33.6877 90.7041C25.7011 80.9374 18.3177 70.024 11.5377 57.964C11.5013 57.8965 11.482 57.821 11.4814 57.7442C11.4809 57.6674 11.4992 57.5917 11.5347 57.5236C11.5702 57.4555 11.6219 57.3972 11.6852 57.3537C11.7485 57.3102 11.8214 57.2828 11.8977 57.274C12.5644 57.2007 13.2211 57.2007 13.8677 57.274C44.5611 60.6674 74.1044 67.3841 102.498 77.4241C107.218 79.0907 112.834 81.4674 119.348 84.554C121.614 85.6207 123.661 86.8041 125.488 88.1041C126.568 88.8707 126.994 90.0907 126.768 91.7641C126.268 95.4241 124.598 97.124 122.208 99.524C122.088 99.6448 122.02 99.8079 122.018 99.9793C122.016 100.151 122.081 100.317 122.198 100.444L122.368 100.624C122.488 100.757 122.618 100.767 122.758 100.654C125.631 98.354 128.674 96.874 131.888 96.214C141.514 94.2407 148.734 96.8007 153.548 103.894C156.888 108.834 158.054 114.884 157.048 122.044C157.029 122.186 157.039 122.331 157.077 122.468C157.114 122.605 157.179 122.733 157.268 122.844C158.228 124.037 159.344 125.007 160.618 125.754C182.824 138.787 204.801 153.144 226.548 168.824C227.108 169.224 227.251 169.111 226.978 168.484ZM336.148 145.224C330.494 141.497 324.824 137.687 319.138 133.794C306.518 125.161 294.488 114.374 283.048 101.434C264.974 81.0007 252.801 56.6741 246.528 28.4541C246.516 28.4003 246.485 28.3526 246.441 28.3195C246.397 28.2865 246.343 28.2704 246.288 28.274C246.148 28.2874 246.061 28.3407 246.028 28.434C243.368 36.774 241.051 44.564 239.078 51.804C234.904 67.144 232.634 82.2074 232.268 96.994C232.121 102.921 232.531 109.571 233.498 116.944C235.344 131.057 240.044 144.247 247.598 156.514C260.988 178.264 282.048 192.384 304.728 203.594C316.218 209.274 326.038 217.174 332.008 228.764C335.328 235.211 338.408 242.361 341.248 250.214C342.021 252.354 343.471 255.041 345.598 258.274C348.451 262.621 351.788 265.481 355.608 266.854C356.818 267.284 358.868 267.504 359.878 266.584C366.778 260.357 371.444 253.407 373.878 245.734C375.908 239.334 378.468 232.794 381.628 227.074C387.798 215.904 401.668 206.574 413.328 199.844C427.578 191.604 440.748 181.054 451.728 169.414C465.948 154.354 475.128 133.624 478.538 112.884C479.564 106.624 479.951 99.8941 479.698 92.6941C478.928 70.9041 473.668 48.1041 465.598 28.5141C465.324 27.8407 465.124 27.8607 464.998 28.5741C464.018 34.0641 462.908 39.4141 461.148 44.9541C453.358 69.5941 438.688 92.8441 420.098 111.604C409.098 122.711 398.391 131.774 387.978 138.794C387.231 139.301 386.478 139.777 385.718 140.224C384.624 140.864 384.698 141.307 385.938 141.554C393.828 143.114 398.868 146.514 401.138 154.424C404.358 165.657 402.191 175.787 394.638 184.814C391.528 188.534 387.608 192.614 385.248 196.224C379.018 205.794 375.198 218.254 374.078 229.694C374.044 230.041 373.901 230.331 373.648 230.564C373.154 231.024 372.591 230.814 371.958 229.934C371.781 229.685 371.667 229.393 371.628 229.084C371.108 224.731 370.498 220.677 369.798 216.924C369.718 216.497 369.598 216.051 369.438 215.584C369.298 215.171 369.088 214.797 368.808 214.464C366.774 212.024 365.114 209.367 363.828 206.494C363.789 206.407 363.733 206.329 363.661 206.266C363.59 206.203 363.506 206.156 363.415 206.128C363.323 206.101 363.227 206.093 363.133 206.106C363.038 206.119 362.948 206.153 362.868 206.204C362.534 206.417 362.361 206.724 362.348 207.124C361.954 222.284 361.568 237.511 361.188 252.804C361.161 253.984 360.558 254.597 359.378 254.644L357.538 254.724C355.778 254.804 354.761 253.971 354.488 252.224C353.941 248.691 353.704 245.357 353.778 242.224C354.084 229.271 354.271 217.524 354.338 206.984C354.551 172.191 354.628 135.941 354.568 98.2341C354.568 96.1341 354.784 93.6207 355.218 90.6941C355.238 90.5528 355.223 90.4086 355.174 90.2747C355.125 90.1408 355.043 90.0215 354.937 89.9279C354.83 89.8342 354.702 89.7692 354.564 89.7388C354.426 89.7084 354.283 89.7137 354.148 89.7541C346.738 91.8941 339.018 94.034 331.898 97.064C323.344 100.691 314.918 105.304 306.618 110.904C306.525 110.967 306.446 111.049 306.387 111.145C306.328 111.24 306.29 111.347 306.274 111.458C306.259 111.57 306.268 111.683 306.299 111.791C306.331 111.899 306.385 111.998 306.458 112.084C316.458 123.711 326.501 134.581 336.588 144.694C338.201 146.307 338.054 146.484 336.148 145.224ZM80.0077 94.494C64.3877 86.254 49.9177 78.674 35.2077 71.994C35.0611 71.9274 34.9477 71.9641 34.8677 72.1041L34.7277 72.3241C34.7077 72.3641 34.7144 72.3974 34.7477 72.4241C37.8177 74.5641 40.8877 76.9441 43.9477 78.8941C56.2077 86.7007 68.2644 94.3707 80.1177 101.904C81.5128 102.788 83.0066 103.503 84.5677 104.034C91.5377 106.414 99.0077 107.414 104.568 112.734C107.041 115.101 109.551 117.687 112.098 120.494C112.322 120.742 112.617 120.917 112.943 120.995C113.27 121.073 113.613 121.052 113.928 120.934C115.428 120.381 116.718 119.531 117.798 118.384C117.903 118.271 117.973 118.13 118 117.978C118.026 117.826 118.007 117.67 117.945 117.528C117.884 117.387 117.782 117.266 117.652 117.182C117.523 117.098 117.372 117.053 117.218 117.054L114.198 117.084C113.903 117.087 113.611 117.021 113.346 116.891C113.08 116.761 112.848 116.57 112.668 116.334C111.188 114.374 109.728 112.394 108.288 110.394C104.478 105.114 99.7277 101.674 93.6977 99.8541C88.9877 98.4241 84.3777 96.804 80.0077 94.494ZM676.658 72.7641C663.571 78.5307 652.564 83.9374 643.638 88.9841C634.644 94.0774 625.368 98.2407 615.808 101.474C609.988 103.444 606.808 107.874 603.838 113.044C601.848 116.524 598.718 117.494 595.028 118.114C594.141 118.267 594.071 118.594 594.818 119.094L597.058 120.584C597.388 120.804 597.762 120.952 598.154 121.017C598.547 121.083 598.951 121.065 599.338 120.964C600.344 120.704 601.248 120.147 602.048 119.294C604.514 116.661 606.911 114.217 609.238 111.964C612.988 108.324 620.338 106.674 625.328 105.424C627.208 104.944 629.748 103.684 631.378 102.634C639.198 97.5874 647.148 92.4207 655.228 87.1341C662.278 82.5041 670.008 78.034 677.448 73.214C677.467 73.2021 677.483 73.1853 677.494 73.1652C677.505 73.145 677.511 73.1221 677.511 73.0984C677.511 73.0748 677.505 73.0511 677.494 73.0294C677.483 73.0077 677.467 72.9887 677.448 72.9741L677.228 72.8241C677.048 72.6974 676.858 72.6774 676.658 72.7641ZM363.218 104.314C363.303 104.084 363.449 103.882 363.641 103.729C363.833 103.576 364.064 103.477 364.308 103.444C375.598 101.974 384.988 107.404 395.228 111.704C396.748 112.344 398.368 112.644 399.938 113.184C400.073 113.229 400.217 113.236 400.356 113.207C400.494 113.177 400.623 113.111 400.728 113.015C400.832 112.92 400.91 112.798 400.952 112.662C400.994 112.527 401 112.382 400.968 112.244C400.348 109.577 398.674 107.527 395.948 106.094C385.201 100.441 373.288 97.3774 360.208 96.904C360.008 96.898 359.813 96.9678 359.663 97.0996C359.513 97.2314 359.418 97.4152 359.398 97.6141C359.178 100.227 359.061 103.084 359.048 106.184C358.994 118.391 359.251 130.174 359.818 141.534C359.824 141.701 359.911 141.784 360.078 141.784L360.348 141.794C360.394 141.794 360.421 141.767 360.428 141.714C361.394 129.507 362.228 117.467 362.928 105.594C362.954 105.167 363.051 104.741 363.218 104.314ZM566.878 108.684C566.487 109.101 566.272 109.653 566.278 110.224L566.328 117.514C566.328 118.021 566.502 118.512 566.82 118.907C567.138 119.301 567.582 119.575 568.077 119.683C568.572 119.79 569.089 119.725 569.543 119.498C569.996 119.271 570.357 118.895 570.568 118.434L573.968 111.044C574.119 110.716 574.188 110.355 574.168 109.994L573.998 106.594C573.975 106.159 573.825 105.74 573.566 105.389C573.307 105.039 572.951 104.772 572.541 104.623C572.132 104.474 571.687 104.448 571.263 104.55C570.84 104.651 570.455 104.875 570.158 105.194L566.878 108.684ZM144.828 107.764C143.954 105.391 142.351 104.464 140.018 104.984C139.525 105.092 139.094 105.387 138.814 105.807C138.535 106.226 138.428 106.738 138.518 107.234C139.371 111.987 141.318 116.177 144.358 119.804C144.771 120.304 145.188 120.307 145.608 119.814C148.948 115.874 146.298 111.754 144.828 107.764ZM139.248 124.714C134.908 120.604 128.638 119.134 123.618 122.634C120.448 124.834 117.418 129.114 119.358 133.024C120.504 135.344 122.164 136.787 124.338 137.354C128.408 138.414 135.748 138.244 139.668 135.234C143.238 132.504 142.138 127.444 139.248 124.714ZM587.608 137.614C591.041 136.294 592.958 134.294 593.358 131.614C594.268 125.454 588.138 121.044 582.408 120.834C578.228 120.674 573.378 124.354 571.568 127.724C569.748 131.104 569.428 135.274 573.678 137.144C578.384 139.217 583.028 139.374 587.608 137.614ZM123.728 153.254C123.701 152.201 123.184 151.517 122.178 151.204C120.618 150.724 119.188 149.474 118.838 147.794C118.238 145.004 118.048 142.004 117.018 139.314C116.738 138.587 116.218 138.301 115.458 138.454C113.538 138.834 112.128 140.294 112.218 142.294C112.538 149.474 115.288 154.754 122.248 156.654C123.288 156.941 123.794 156.547 123.768 155.474L123.728 153.254ZM600.178 146.974C600.468 144.944 600.758 142.924 600.518 140.864C600.488 140.614 600.397 140.376 600.251 140.172C600.105 139.967 599.909 139.803 599.683 139.694C599.456 139.585 599.206 139.536 598.955 139.55C598.704 139.564 598.461 139.641 598.248 139.774C597.328 140.361 596.604 141.147 596.078 142.134C593.918 146.207 591.564 150.621 589.018 155.374C588.943 155.514 588.905 155.671 588.908 155.83C588.911 155.989 588.953 156.144 589.032 156.282C589.111 156.42 589.224 156.535 589.359 156.618C589.495 156.7 589.649 156.747 589.808 156.754C590.588 156.781 591.338 156.611 592.058 156.244C595.718 154.364 599.568 151.324 600.178 146.974ZM568.848 143.834C569.132 143.633 569.348 143.349 569.464 143.02C569.58 142.692 569.591 142.335 569.495 142C569.399 141.665 569.202 141.368 568.93 141.15C568.658 140.932 568.326 140.804 567.978 140.784L562.638 140.454C562.274 140.43 561.913 140.525 561.608 140.724L556.268 144.214C555.977 144.401 555.752 144.674 555.622 144.994C555.491 145.314 555.463 145.667 555.541 146.003C555.619 146.34 555.798 146.645 556.055 146.876C556.312 147.107 556.635 147.253 556.978 147.294L562.258 147.964C562.675 148.015 563.096 147.908 563.438 147.664L568.848 143.834ZM160.217 146.407C160.364 145.555 159.643 144.589 158.213 143.721C156.784 142.854 154.762 142.156 152.593 141.782C151.519 141.596 150.441 141.496 149.42 141.486C148.4 141.476 147.458 141.556 146.647 141.724C145.836 141.891 145.172 142.141 144.694 142.46C144.215 142.778 143.932 143.159 143.859 143.581C143.712 144.433 144.432 145.399 145.862 146.267C147.292 147.134 149.314 147.832 151.483 148.206C152.557 148.392 153.635 148.493 154.655 148.503C155.675 148.513 156.618 148.432 157.429 148.265C158.24 148.097 158.903 147.847 159.382 147.529C159.86 147.21 160.144 146.829 160.217 146.407ZM540.798 153.904C540.739 153.943 540.693 154 540.668 154.067C540.643 154.133 540.64 154.205 540.658 154.274L542.358 160.514C542.371 160.566 542.397 160.613 542.433 160.653C542.468 160.693 542.512 160.724 542.562 160.743C542.612 160.763 542.665 160.77 542.718 160.765C542.771 160.76 542.823 160.743 542.868 160.714L553.868 153.664C553.941 153.618 553.995 153.546 554.017 153.463C554.039 153.379 554.029 153.29 553.988 153.214L551.078 147.874C551.056 147.833 551.026 147.796 550.989 147.767C550.953 147.738 550.911 147.717 550.866 147.705C550.821 147.693 550.774 147.69 550.728 147.697C550.682 147.703 550.637 147.719 550.598 147.744L540.798 153.904ZM164.868 150.094L161.968 151.144C161.757 151.223 161.58 151.373 161.469 151.568C161.357 151.764 161.318 151.992 161.358 152.214C161.958 155.454 164.291 157.801 168.358 159.254C170.524 160.027 172.571 159.784 174.498 158.524C174.611 158.451 174.724 158.381 174.838 158.314C176.784 157.154 176.764 156.031 174.778 154.944L166.158 150.194C165.744 149.967 165.314 149.934 164.868 150.094ZM534.508 165.664C534.553 165.636 534.59 165.596 534.614 165.548C534.639 165.501 534.651 165.447 534.648 165.394L534.278 158.284C534.276 158.23 534.261 158.177 534.232 158.132C534.203 158.086 534.162 158.049 534.114 158.024C534.066 157.999 534.012 157.988 533.958 157.992C533.904 157.995 533.852 158.013 533.808 158.044L521.868 166.024C521.809 166.063 521.765 166.121 521.745 166.189C521.725 166.257 521.73 166.329 521.758 166.394L524.098 171.764C524.114 171.805 524.14 171.842 524.172 171.872C524.204 171.902 524.243 171.924 524.285 171.937C524.327 171.951 524.371 171.955 524.415 171.949C524.459 171.943 524.501 171.928 524.538 171.904L534.508 165.664ZM183.838 161.614C183.561 161.43 183.247 161.311 182.918 161.266C182.589 161.221 182.254 161.251 181.938 161.354L179.708 162.094C179.327 162.22 178.989 162.447 178.728 162.752C178.467 163.056 178.295 163.426 178.229 163.821C178.163 164.216 178.206 164.622 178.354 164.994C178.502 165.367 178.749 165.692 179.068 165.934L187.108 172.044C187.415 172.278 187.778 172.427 188.16 172.476C188.543 172.525 188.932 172.473 189.288 172.324L192.058 171.174C192.427 171.021 192.748 170.771 192.986 170.45C193.223 170.128 193.369 169.748 193.407 169.35C193.445 168.952 193.374 168.552 193.202 168.191C193.029 167.831 192.761 167.524 192.428 167.304L183.838 161.614ZM516.298 177.204C516.379 177.16 516.446 177.095 516.494 177.016C516.541 176.937 516.567 176.846 516.568 176.754L516.688 170.394C516.688 170.301 516.663 170.209 516.616 170.128C516.568 170.048 516.5 169.982 516.418 169.937C516.336 169.892 516.244 169.869 516.151 169.873C516.057 169.876 515.966 169.904 515.888 169.954L504.558 177.364C504.475 177.418 504.409 177.495 504.368 177.585C504.328 177.676 504.313 177.776 504.328 177.874L505.088 182.764C505.1 182.848 505.132 182.927 505.181 182.996C505.231 183.064 505.297 183.12 505.372 183.157C505.448 183.195 505.532 183.213 505.617 183.211C505.701 183.208 505.784 183.186 505.858 183.144L516.298 177.204ZM210.459 182.265C210.662 181.863 210.683 181.374 210.52 180.826C210.357 180.277 210.014 179.68 209.511 179.069C209.007 178.458 208.352 177.844 207.584 177.263C206.816 176.682 205.95 176.145 205.034 175.682C203.185 174.749 201.249 174.175 199.652 174.089C198.055 174.003 196.927 174.411 196.517 175.223C196.314 175.625 196.293 176.114 196.455 176.662C196.618 177.211 196.961 177.808 197.465 178.419C197.969 179.03 198.623 179.644 199.391 180.225C200.159 180.806 201.026 181.343 201.941 181.806C203.79 182.74 205.726 183.313 207.323 183.399C208.921 183.485 210.049 183.077 210.459 182.265ZM487.838 187.934C487.747 187.995 487.673 188.077 487.621 188.172C487.568 188.268 487.54 188.375 487.538 188.484L487.438 194.804C487.434 194.928 487.465 195.051 487.526 195.159C487.587 195.267 487.676 195.356 487.784 195.417C487.892 195.477 488.015 195.507 488.139 195.503C488.263 195.499 488.384 195.462 488.488 195.394L498.398 188.964C498.503 188.896 498.588 188.801 498.643 188.688C498.698 188.575 498.72 188.449 498.708 188.324L498.048 182.114C498.035 181.997 497.993 181.885 497.924 181.79C497.856 181.694 497.764 181.618 497.657 181.568C497.55 181.519 497.432 181.498 497.315 181.508C497.198 181.518 497.085 181.558 496.988 181.624L487.838 187.934ZM226.924 193.038C227.366 192.153 227.095 190.958 226.172 189.716C225.249 188.474 223.749 187.287 222.002 186.416C220.255 185.545 218.404 185.061 216.857 185.072C215.31 185.082 214.192 185.585 213.751 186.47C213.31 187.355 213.58 188.55 214.503 189.792C215.427 191.034 216.927 192.221 218.673 193.092C220.42 193.963 222.271 194.447 223.818 194.437C225.366 194.426 226.483 193.923 226.924 193.038ZM481.328 200.024C481.374 199.994 481.412 199.952 481.439 199.903C481.465 199.854 481.478 199.8 481.478 199.744V192.284C481.478 192.224 481.461 192.164 481.43 192.113C481.398 192.061 481.353 192.019 481.3 191.991C481.246 191.963 481.186 191.951 481.126 191.955C481.065 191.959 481.007 191.979 480.958 192.014L471.968 198.354C471.92 198.387 471.882 198.433 471.857 198.485C471.833 198.538 471.823 198.596 471.828 198.654L472.428 205.264C472.432 205.321 472.452 205.376 472.484 205.424C472.516 205.471 472.56 205.509 472.611 205.534C472.663 205.56 472.72 205.571 472.777 205.568C472.835 205.564 472.89 205.546 472.938 205.514L481.328 200.024ZM241.333 204.256C241.969 203.43 242.055 202.234 241.572 200.932C241.088 199.629 240.075 198.327 238.756 197.31C238.102 196.807 237.393 196.389 236.669 196.081C235.945 195.773 235.22 195.58 234.535 195.513C233.85 195.446 233.219 195.507 232.678 195.692C232.138 195.878 231.697 196.183 231.382 196.592C230.746 197.418 230.66 198.614 231.144 199.916C231.627 201.219 232.64 202.522 233.96 203.538C234.613 204.041 235.322 204.459 236.046 204.767C236.771 205.076 237.496 205.269 238.18 205.335C238.865 205.402 239.496 205.341 240.037 205.156C240.578 204.97 241.018 204.665 241.333 204.256ZM454.218 239.554C455.084 241.534 454.818 241.697 453.418 240.044C448.111 233.797 442.278 228.761 435.918 224.934C435.311 224.567 434.878 224.714 434.618 225.374C429.271 239.054 420.121 249.411 407.168 256.444C405.054 257.591 402.258 258.424 398.778 258.944C398.384 258.997 398.361 259.127 398.708 259.334C406.768 264.134 413.538 272.364 418.388 280.354C419.861 282.787 419.548 283.044 417.448 281.124C405.988 270.634 393.618 262.664 377.978 259.524C377.638 259.457 377.314 259.497 377.008 259.644C375.941 260.157 375.058 260.921 374.358 261.934C373.711 262.867 373.911 263.554 374.958 263.994C378.371 265.434 381.694 266.907 384.928 268.414C400.328 275.567 411.374 287.544 418.068 304.344C424.818 321.294 429.488 336.624 448.918 342.524C453.028 343.774 458.678 343.184 457.708 337.284C456.854 332.097 455.678 326.394 454.178 320.174C451.638 309.601 451.298 298.617 453.158 287.224C453.291 286.411 453.624 285.747 454.158 285.234C454.237 285.156 454.336 285.101 454.445 285.075C454.553 285.049 454.667 285.053 454.773 285.087C454.879 285.121 454.974 285.183 455.047 285.268C455.12 285.352 455.169 285.454 455.188 285.564C456.628 293.811 458.704 302.027 461.418 310.214C462.071 312.187 463.001 313.907 464.208 315.374C464.848 316.154 465.064 316.051 464.858 315.064C463.211 307.111 461.714 299.191 460.368 291.304C459.248 284.714 458.478 277.044 458.798 270.514C459.488 256.294 483.418 255.774 493.498 254.984C494.944 254.871 495.021 254.484 493.728 253.824C489.221 251.517 485.141 249.287 481.488 247.134C463.734 236.667 454.444 221.167 453.618 200.634C453.604 200.281 453.424 200.134 453.078 200.194C450.031 200.701 447.294 201.637 444.868 203.004C444.739 203.078 444.632 203.183 444.555 203.309C444.478 203.434 444.434 203.577 444.428 203.724C444.401 204.351 444.521 204.871 444.788 205.284C446.281 207.617 447.531 209.847 448.538 211.974C449.911 214.874 449.571 215.091 447.518 212.624C444.098 208.514 434.198 203.174 431.108 211.134C430.934 211.587 431.064 211.921 431.498 212.134C439.928 216.254 446.478 222.554 450.398 231.074C451.664 233.814 452.938 236.641 454.218 239.554ZM293.138 281.034C294.064 278.814 295.471 276.584 297.358 274.344C302.564 268.184 308.218 262.864 314.318 258.384C314.339 258.37 314.355 258.351 314.365 258.328C314.374 258.305 314.376 258.279 314.371 258.254C314.366 258.228 314.353 258.205 314.335 258.185C314.317 258.166 314.293 258.151 314.268 258.144C309.688 256.924 305.854 255.387 302.768 253.534C291.354 246.674 283.321 237.217 278.668 225.164C278.573 224.918 278.387 224.719 278.148 224.609C277.909 224.499 277.636 224.486 277.388 224.574C274.814 225.501 272.501 226.901 270.448 228.774C266.808 232.114 263.078 235.684 259.258 239.484C257.984 240.751 257.751 240.584 258.558 238.984C260.731 234.697 263.014 230.164 265.408 225.384C268.798 218.604 275.538 215.624 281.668 211.124C282.141 210.777 282.101 210.511 281.548 210.324L273.188 207.504C272.728 207.351 272.304 207.421 271.918 207.714L265.978 212.294C265.917 212.341 265.845 212.374 265.769 212.389C265.693 212.404 265.615 212.401 265.54 212.381C265.466 212.36 265.397 212.323 265.339 212.272C265.281 212.22 265.236 212.156 265.208 212.084C265.074 211.724 265.058 211.357 265.158 210.984C265.764 208.651 266.781 206.507 268.208 204.554C268.263 204.478 268.299 204.39 268.315 204.298C268.33 204.205 268.323 204.11 268.295 204.021C268.266 203.932 268.218 203.85 268.152 203.783C268.087 203.716 268.006 203.665 267.918 203.634L260.228 201.034C260.021 200.967 259.908 201.041 259.888 201.254C259.208 207.841 257.518 214.517 254.818 221.284C248.878 236.124 233.938 247.594 219.388 253.344C218.528 253.684 218.534 254.007 219.408 254.314C220.721 254.781 222.098 255.057 223.538 255.144C233.628 255.784 255.728 257.914 254.938 272.824C254.251 285.811 251.561 299.367 246.868 313.494C245.774 316.794 246.188 316.991 248.108 314.084C254.298 304.724 256.898 294.414 258.788 283.434C258.808 283.314 258.868 283.231 258.968 283.184C259.088 283.124 259.181 283.131 259.248 283.204C259.321 283.284 259.361 283.367 259.368 283.454C260.668 293.204 261.518 301.994 259.548 312.204C258.201 319.177 256.518 326.691 254.498 334.744C253.538 338.544 254.588 342.374 259.188 342.684C267.868 343.264 276.328 337.994 281.698 331.464C286.518 325.594 290.128 318.244 292.628 310.674C293.708 307.407 294.871 304.187 296.118 301.014C304.008 280.904 318.598 270.734 337.948 263.404C339.054 262.977 339.161 262.374 338.268 261.594C337.541 260.954 336.751 260.367 335.898 259.834C334.744 259.121 333.518 258.957 332.218 259.344C321.831 262.411 313.101 266.411 306.028 271.344C301.738 274.334 297.638 277.934 293.568 281.344C292.994 281.831 292.851 281.727 293.138 281.034ZM319.648 237.334L322.078 232.644C322.25 232.313 322.303 231.932 322.229 231.566C322.154 231.201 321.956 230.871 321.668 230.634C320.908 230.014 320.084 229.621 319.198 229.454C318.851 229.394 318.538 229.467 318.258 229.674C314.458 232.414 310.438 235.914 305.378 233.464C299.238 230.494 295.628 225.284 291.158 220.784C290.988 220.612 290.773 220.492 290.538 220.435C290.303 220.379 290.056 220.389 289.827 220.465C289.597 220.541 289.393 220.679 289.238 220.864C289.083 221.05 288.982 221.275 288.948 221.514C287.478 231.544 295.978 240.274 304.658 244.084C311.268 246.984 321.458 247.864 327.648 243.264C327.744 243.193 327.818 243.096 327.862 242.984C327.905 242.873 327.917 242.751 327.895 242.634C327.873 242.516 327.819 242.407 327.738 242.318C327.657 242.23 327.553 242.166 327.438 242.134C324.624 241.361 322.098 240.094 319.858 238.334C319.712 238.218 319.611 238.055 319.572 237.872C319.534 237.689 319.561 237.499 319.648 237.334ZM393.608 238.674C393.661 238.732 393.696 238.805 393.708 238.883C393.72 238.961 393.709 239.041 393.676 239.112C393.643 239.184 393.589 239.244 393.522 239.285C393.455 239.327 393.377 239.347 393.298 239.344C390.928 239.304 386.508 239.064 386.538 242.434C386.558 244.021 387.438 245.124 389.178 245.744C394.398 247.591 399.821 247.631 405.448 245.864C414.568 242.994 426.288 232.844 425.268 221.954C425.243 221.666 425.117 221.395 424.91 221.188C424.704 220.982 424.43 220.853 424.138 220.824C422.804 220.704 421.711 221.191 420.858 222.284C417.758 226.264 415.168 230.044 410.578 232.454C403.468 236.174 398.028 233.614 393.758 227.854C393.164 227.054 392.634 227.091 392.168 227.964L389.848 232.254C389.627 232.664 389.539 233.133 389.594 233.596C389.65 234.059 389.847 234.495 390.158 234.844L393.608 238.674ZM505.718 301.684C496.304 295.431 486.564 289.184 476.498 282.944C475.231 282.157 473.921 281.477 472.568 280.904C472.478 280.866 472.379 280.853 472.282 280.867C472.185 280.881 472.094 280.921 472.018 280.982C471.942 281.044 471.884 281.125 471.851 281.217C471.817 281.309 471.809 281.408 471.828 281.504C471.894 281.891 472.071 282.224 472.358 282.504C474.924 285.004 477.668 287.291 480.588 289.364C503.168 305.377 523.911 319.021 542.818 330.294C552.508 336.074 560.808 340.264 570.498 343.554C571.378 343.854 571.811 343.581 571.798 342.734C571.794 342.54 571.743 342.351 571.649 342.183C571.555 342.015 571.42 341.875 571.258 341.774C559.458 334.374 547.731 327.327 536.078 320.634C528.048 316.024 520.118 310.834 512.318 305.884C511.128 305.134 510.058 304.144 508.798 303.494C507.718 302.934 506.691 302.331 505.718 301.684ZM189.868 318.374C207.128 307.407 223.218 296.561 238.138 285.834C239.171 285.094 240.161 284.274 241.108 283.374C241.928 282.587 241.931 281.954 241.118 281.474C240.986 281.397 240.838 281.353 240.688 281.346C240.538 281.339 240.39 281.369 240.258 281.434C235.744 283.654 231.298 286.224 226.918 289.144C221.418 292.804 215.044 296.924 207.798 301.504C201.964 305.197 196.291 308.697 190.778 312.004C175.731 321.037 161.414 329.651 147.828 337.844C144.548 339.817 141.128 342.134 137.568 344.794C137.154 345.107 137.201 345.304 137.708 345.384C138.121 345.444 138.518 345.401 138.898 345.254C146.308 342.364 154.258 339.714 161.098 335.814C169.824 330.834 179.414 325.021 189.868 318.374ZM380.518 306.004C383.164 305.644 385.488 305.434 387.488 305.374C387.548 305.374 387.601 305.354 387.648 305.314C387.674 305.287 387.684 305.257 387.678 305.224C387.636 305.053 387.547 304.897 387.422 304.773C387.297 304.65 387.139 304.563 386.968 304.524C378.098 302.434 369.898 303.334 360.968 305.764C358.498 306.434 355.908 306.774 353.428 306.114C349.768 305.147 346.124 304.254 342.498 303.434C337.298 302.254 331.168 301.414 326.928 303.604C326.201 303.977 326.248 304.194 327.068 304.254C333.958 304.764 339.458 305.834 346.378 308.284C348.438 309.017 351.408 309.527 355.288 309.814C357.761 309.994 360.258 309.781 362.778 309.174C367.744 307.974 373.658 306.917 380.518 306.004ZM554.468 350.394C561.488 351.661 568.144 352.334 574.438 352.414C576.258 352.434 576.341 352.057 574.688 351.284C571.881 349.964 569.054 348.574 566.208 347.114C559.998 343.934 553.548 342.164 546.988 340.214C522.454 332.901 498.584 323.211 475.378 311.144C475.144 311.017 474.888 310.967 474.608 310.994C474.518 311.005 474.434 311.043 474.366 311.102C474.299 311.162 474.25 311.24 474.228 311.328C474.205 311.415 474.209 311.507 474.239 311.592C474.27 311.677 474.325 311.751 474.398 311.804C479.991 315.864 485.844 319.617 491.958 323.064C501.404 328.377 511.661 333.691 522.728 339.004C533.088 343.974 543.458 348.404 554.468 350.394ZM172.728 337.974C171.181 338.207 169.844 338.677 168.718 339.384C165.858 340.331 162.968 341.247 160.048 342.134C152.058 344.554 145.028 348.034 137.468 351.984C137.366 352.037 137.285 352.124 137.24 352.23C137.194 352.335 137.186 352.453 137.218 352.564C137.291 352.837 137.468 352.961 137.748 352.934C144.074 352.281 150.331 351.667 156.518 351.094C159.498 350.814 162.654 350.164 165.988 349.144C169.921 347.944 173.044 346.841 175.358 345.834C191.891 338.601 208.338 330.434 224.698 321.334C226.504 320.327 228.341 319.231 230.208 318.044C232.088 316.844 233.868 315.684 235.548 314.564C236.361 314.017 237.088 313.374 237.728 312.634C237.828 312.514 237.901 312.384 237.948 312.244C238.014 312.044 237.991 311.851 237.878 311.664C237.698 311.357 237.444 311.281 237.118 311.434C231.408 314.144 225.928 317.284 220.198 319.814C208.671 324.894 193.928 330.631 175.968 337.024C174.274 337.624 173.194 337.941 172.728 337.974ZM355.598 351.324C355.884 350.197 356.201 350.191 356.548 351.304C358.028 356.094 359.058 360.994 361.638 365.524C364.248 370.114 370.828 365.334 373.258 362.924C376.431 359.791 379.621 357.021 382.828 354.614C383.216 354.322 383.698 354.182 384.183 354.221C384.667 354.259 385.121 354.474 385.458 354.824C386.131 355.524 386.891 355.701 387.738 355.354C395.218 352.284 402.098 347.674 406.068 340.614C411.928 330.214 405.948 319.054 395.198 315.784C389.178 313.957 382.768 313.011 375.968 312.944C364.228 312.831 352.284 312.701 340.138 312.554C329.598 312.424 318.958 313.694 310.348 320.244C302.658 326.094 302.098 335.434 307.888 342.924C312.458 348.844 319.328 353.614 326.778 354.874C328.968 355.244 333.898 355.664 335.388 357.464C338.138 360.784 344.368 367.884 349.248 367.574C349.621 367.547 349.921 367.387 350.148 367.094C353.588 362.714 354.248 356.614 355.598 351.324ZM116.638 315.464C116.504 315.291 116.331 315.204 116.118 315.204C115.937 315.204 115.764 315.275 115.637 315.4C115.509 315.526 115.438 315.696 115.438 315.874C115.384 327.254 117.698 337.927 122.378 347.894C129.398 362.864 139.068 375.854 150.068 388.294C150.329 388.589 150.665 388.806 151.038 388.924C152.644 389.411 153.568 389.231 153.808 388.384C154.348 386.537 153.984 384.904 152.718 383.484C143.431 373.084 135.901 363.027 130.128 353.314C127.148 348.294 124.721 342.864 122.848 337.024C120.988 331.231 119.218 324.687 117.538 317.394C117.451 317.014 117.311 316.634 117.118 316.254C116.984 315.967 116.824 315.704 116.638 315.464ZM595.918 317.324C594.951 321.571 593.961 325.457 592.948 328.984C588.681 343.751 582.581 356.694 574.648 367.814C571.248 372.574 566.738 377.881 561.118 383.734C560.615 384.259 560.242 384.894 560.028 385.588C559.815 386.283 559.767 387.018 559.888 387.734C559.921 387.941 559.981 388.137 560.068 388.324C560.534 389.357 561.171 389.474 561.978 388.674C578.491 372.287 589.914 352.717 596.248 329.964C597.328 326.074 598.598 320.214 597.678 316.634C597.657 316.552 597.619 316.475 597.565 316.409C597.512 316.342 597.445 316.289 597.369 316.251C597.293 316.213 597.21 316.191 597.125 316.189C597.04 316.186 596.956 316.201 596.878 316.234C596.351 316.461 596.031 316.824 595.918 317.324ZM84.3877 335.754C71.0277 332.314 53.5377 338.504 49.2177 352.714C49.0311 353.327 48.9477 353.694 48.9677 353.814C49.1477 354.821 49.6011 354.964 50.3277 354.244C54.1744 350.444 57.9944 347.324 61.7877 344.884C68.7777 340.394 76.0877 338.414 84.2377 337.634C87.8644 337.287 87.9144 336.661 84.3877 335.754ZM642.368 340.074C648.514 342.021 654.154 345.721 659.288 351.174C660.021 351.954 660.974 352.641 662.148 353.234C662.508 353.414 662.814 353.347 663.068 353.034C663.561 352.427 663.614 351.791 663.228 351.124C657.954 342.064 650.531 336.927 640.958 335.714C636.468 335.144 631.918 335.824 627.438 336.694C627.312 336.718 627.199 336.789 627.122 336.895C627.044 337 627.007 337.131 627.018 337.264L627.038 337.514C627.04 337.577 627.067 337.637 627.114 337.681C627.16 337.726 627.222 337.752 627.288 337.754C632.781 337.861 637.808 338.634 642.368 340.074ZM75.3677 357.394C78.9944 355.441 82.6611 354.004 86.3677 353.084C91.2877 351.854 95.8677 352.644 100.658 354.144C104.298 355.294 108.248 355.344 111.828 354.064C113.601 353.424 113.554 352.971 111.688 352.704C109.038 352.324 106.378 352.124 103.758 351.464C96.7277 349.684 89.6577 346.944 82.2177 348.444C75.2511 349.851 68.0844 353.107 60.7177 358.214C42.3577 370.934 25.3277 387.854 14.5877 407.564C14.4144 407.884 14.3011 408.221 14.2477 408.574C14.1077 409.567 14.3877 409.704 15.0877 408.984C23.3944 400.497 31.6311 392.184 39.7977 384.044C50.7311 373.157 62.5877 364.274 75.3677 357.394ZM639.058 358.414C651.168 364.634 660.728 372.354 671.468 382.184C680.908 390.824 689.808 400.844 698.598 409.394C698.698 409.487 698.804 409.504 698.918 409.444C699.138 409.317 699.191 409.141 699.078 408.914C697.308 405.354 695.448 401.594 693.128 398.394C679.298 379.334 661.778 362.234 641.138 352.104C636.598 349.871 632.238 348.504 628.058 348.004C625.311 347.677 621.234 348.124 615.828 349.344C611.194 350.391 606.748 351.207 602.488 351.794C601.154 351.981 601.051 352.441 602.178 353.174C603.744 354.201 605.571 354.591 607.658 354.344C614.648 353.504 620.878 352.324 628.238 353.784C631.958 354.514 635.668 356.674 639.058 358.414ZM609.798 380.454C605.431 376.721 601.224 372.477 597.178 367.724C596.531 366.957 596.318 367.064 596.538 368.044C596.664 368.591 596.924 369.074 597.318 369.494C598.684 370.954 599.728 372.587 600.448 374.394C601.708 377.534 603.478 380.754 605.908 383.094C610.201 387.234 615.951 390.094 623.158 391.674C632.038 393.627 640.928 395.571 649.828 397.504C659.581 399.624 669.121 402.894 678.448 407.314C683.408 409.667 688.161 412.061 692.708 414.494C693.808 415.081 693.944 414.907 693.118 413.974C686.308 406.254 677.358 400.474 667.928 395.494C663.994 393.414 659.338 392.007 653.958 391.274C645.931 390.181 637.984 389.191 630.118 388.304C622.678 387.464 615.478 385.314 609.798 380.454ZM56.5377 391.834C53.0777 392.254 49.3711 393.537 45.4177 395.684C35.2911 401.177 27.1777 406.994 21.0777 413.134C20.8244 413.394 20.6144 413.691 20.4477 414.024C19.9011 415.091 20.1544 415.334 21.2077 414.754C30.6144 409.547 40.1411 405.197 49.7877 401.704C60.6977 397.754 72.3677 395.784 83.8877 393.314C91.3477 391.724 102.288 388.454 107.248 382.414C110.128 378.901 112.934 374.797 115.668 370.104C115.719 370.016 115.745 369.916 115.742 369.814C115.738 369.712 115.706 369.613 115.649 369.53C115.592 369.447 115.513 369.382 115.42 369.344C115.328 369.305 115.226 369.295 115.128 369.314C114.841 369.367 114.594 369.497 114.388 369.704C111.048 373.157 107.864 376.381 104.838 379.374C98.1877 385.934 89.2477 387.914 79.8977 389.024C70.7511 390.111 62.9644 391.047 56.5377 391.834Z" fill="#363433"/>
<path d="M336.148 145.224C338.054 146.484 338.201 146.307 336.588 144.694C326.501 134.581 316.458 123.711 306.458 112.084C306.385 111.998 306.331 111.899 306.299 111.791C306.268 111.683 306.259 111.57 306.274 111.458C306.29 111.347 306.328 111.24 306.387 111.145C306.446 111.049 306.525 110.967 306.618 110.904C314.918 105.304 323.344 100.691 331.898 97.064C339.018 94.034 346.738 91.894 354.148 89.754C354.283 89.7137 354.426 89.7084 354.564 89.7388C354.702 89.7692 354.83 89.8342 354.937 89.9279C355.043 90.0215 355.125 90.1408 355.174 90.2747C355.223 90.4086 355.238 90.5528 355.218 90.694C354.784 93.6207 354.568 96.1341 354.568 98.2341C354.628 135.941 354.551 172.191 354.338 206.984C354.271 217.524 354.084 229.271 353.778 242.224C353.704 245.357 353.941 248.691 354.488 252.224C354.761 253.971 355.778 254.804 357.538 254.724L359.378 254.644C360.558 254.597 361.161 253.984 361.188 252.804C361.568 237.511 361.954 222.284 362.348 207.124C362.361 206.724 362.534 206.417 362.868 206.204C362.948 206.153 363.038 206.119 363.133 206.106C363.227 206.093 363.323 206.101 363.415 206.128C363.506 206.156 363.59 206.203 363.661 206.266C363.733 206.329 363.789 206.407 363.828 206.494C365.114 209.367 366.774 212.024 368.808 214.464C369.088 214.797 369.298 215.171 369.438 215.584C369.598 216.051 369.718 216.497 369.798 216.924C370.498 220.677 371.108 224.731 371.628 229.084C371.667 229.393 371.781 229.685 371.958 229.934C372.591 230.814 373.154 231.024 373.648 230.564C373.901 230.331 374.044 230.041 374.078 229.694C375.198 218.254 379.018 205.794 385.248 196.224C387.608 192.614 391.528 188.534 394.638 184.814C402.191 175.787 404.358 165.657 401.138 154.424C398.868 146.514 393.828 143.114 385.938 141.554C384.698 141.307 384.624 140.864 385.718 140.224C386.478 139.777 387.231 139.301 387.978 138.794C398.391 131.774 409.098 122.711 420.098 111.604C438.688 92.844 453.358 69.5941 461.148 44.9541C462.908 39.4141 464.018 34.0641 464.998 28.5741C465.124 27.8607 465.324 27.8407 465.598 28.5141C473.668 48.1041 478.928 70.904 479.698 92.694C479.951 99.894 479.564 106.624 478.538 112.884C475.128 133.624 465.948 154.354 451.728 169.414C440.748 181.054 427.578 191.604 413.328 199.844C401.668 206.574 387.798 215.904 381.628 227.074C378.468 232.794 375.908 239.334 373.878 245.734C371.444 253.407 366.778 260.357 359.878 266.584C358.868 267.504 356.818 267.284 355.608 266.854C351.788 265.481 348.451 262.621 345.598 258.274C343.471 255.041 342.021 252.354 341.248 250.214C338.408 242.361 335.328 235.211 332.008 228.764C326.038 217.174 316.218 209.274 304.728 203.594C282.048 192.384 260.988 178.264 247.598 156.514C240.044 144.247 235.344 131.057 233.498 116.944C232.531 109.571 232.121 102.921 232.268 96.994C232.634 82.2074 234.904 67.144 239.078 51.804C241.051 44.564 243.368 36.774 246.028 28.434C246.061 28.3407 246.148 28.2874 246.288 28.274C246.343 28.2704 246.397 28.2865 246.441 28.3195C246.485 28.3526 246.516 28.4003 246.528 28.4541C252.801 56.6741 264.974 81.0007 283.048 101.434C294.488 114.374 306.518 125.161 319.138 133.794C324.824 137.687 330.494 141.497 336.148 145.224ZM240.218 96.134C239.188 92.324 238.488 88.324 237.558 84.444C237.018 82.1774 236.654 82.204 236.468 84.524C235.534 95.9574 236.808 107.667 240.288 119.654C242.261 126.441 245.244 132.634 249.238 138.234C254.628 145.784 260.508 153.844 266.918 160.544C270.418 164.211 274.021 167.821 277.728 171.374C277.808 171.447 277.888 171.447 277.968 171.374H277.978C278.044 171.314 278.051 171.247 277.998 171.174C272.198 163.654 266.984 155.964 262.358 148.104C252.351 131.117 244.971 113.794 240.218 96.134ZM428.488 171.144C425.728 174.934 423.328 178.854 420.398 182.614C417.711 186.067 415.041 189.331 412.388 192.404C410.701 194.357 410.894 194.567 412.968 193.034C415.948 190.834 418.878 188.544 422.088 186.634C437.848 177.264 453.128 164.924 461.708 148.324C468.354 135.457 472.578 122.397 474.378 109.144C475.371 101.811 475.798 93.9474 475.658 85.554C475.598 82.174 475.188 82.134 474.428 85.434C472.108 95.514 468.538 105.534 463.718 115.494C454.178 135.214 442.138 152.454 428.488 171.144ZM338.562 233.968C339.12 233.918 339.545 232.649 339.745 230.439C339.946 228.23 339.904 225.261 339.629 222.186C339.355 219.112 338.87 216.182 338.282 214.043C337.694 211.904 337.05 210.73 336.493 210.78C335.936 210.83 335.51 212.099 335.31 214.309C335.11 216.518 335.152 219.487 335.426 222.562C335.701 225.636 336.185 228.566 336.773 230.705C337.362 232.844 338.005 234.018 338.562 233.968Z" fill="#D23A2E"/>
<path d="M35.2077 71.994C49.9177 78.674 64.3877 86.254 80.0077 94.494C84.3777 96.804 88.9877 98.4241 93.6977 99.8541C99.7277 101.674 104.478 105.114 108.288 110.394C109.728 112.394 111.188 114.374 112.668 116.334C112.848 116.57 113.08 116.761 113.346 116.891C113.611 117.021 113.903 117.087 114.198 117.084L117.218 117.054C117.372 117.053 117.523 117.098 117.652 117.182C117.782 117.266 117.883 117.387 117.945 117.528C118.007 117.67 118.026 117.826 118 117.978C117.973 118.13 117.903 118.271 117.798 118.384C116.718 119.531 115.428 120.381 113.928 120.934C113.613 121.052 113.27 121.073 112.943 120.995C112.617 120.917 112.322 120.742 112.098 120.494C109.551 117.687 107.041 115.101 104.568 112.734C99.0077 107.414 91.5377 106.414 84.5677 104.034C83.0065 103.503 81.5128 102.788 80.1177 101.904C68.2643 94.3707 56.2077 86.7007 43.9477 78.8941C40.8877 76.9441 37.8177 74.5641 34.7477 72.4241C34.7144 72.3974 34.7077 72.3641 34.7277 72.3241L34.8677 72.1041C34.9477 71.9641 35.061 71.9274 35.2077 71.994Z" fill="white"/>
<path d="M676.658 72.7641C676.858 72.6774 677.048 72.6974 677.228 72.8241L677.448 72.974C677.467 72.9887 677.483 73.0077 677.494 73.0294C677.505 73.0511 677.511 73.0748 677.511 73.0984C677.511 73.1221 677.505 73.145 677.494 73.1652C677.483 73.1853 677.467 73.2021 677.448 73.214C670.008 78.034 662.278 82.5041 655.228 87.1341C647.148 92.4207 639.198 97.5874 631.378 102.634C629.748 103.684 627.208 104.944 625.328 105.424C620.338 106.674 612.988 108.324 609.238 111.964C606.911 114.217 604.514 116.661 602.048 119.294C601.248 120.147 600.344 120.704 599.338 120.964C598.951 121.065 598.547 121.083 598.154 121.017C597.762 120.952 597.388 120.804 597.058 120.584L594.818 119.094C594.071 118.594 594.141 118.267 595.028 118.114C598.718 117.494 601.848 116.524 603.838 113.044C606.808 107.874 609.988 103.444 615.808 101.474C625.368 98.2407 634.644 94.0774 643.638 88.9841C652.564 83.9374 663.571 78.5307 676.658 72.7641Z" fill="white"/>
<path d="M240.218 96.1341C244.971 113.794 252.351 131.117 262.358 148.104C266.984 155.964 272.198 163.654 277.998 171.174C278.051 171.247 278.044 171.314 277.978 171.374H277.968C277.888 171.447 277.808 171.447 277.728 171.374C274.021 167.821 270.418 164.211 266.918 160.544C260.508 153.844 254.628 145.784 249.238 138.234C245.244 132.634 242.261 126.441 240.288 119.654C236.808 107.667 235.534 95.9574 236.468 84.5241C236.654 82.2041 237.018 82.1774 237.558 84.4441C238.488 88.3241 239.188 92.3241 240.218 96.1341Z" fill="#363433"/>
<path d="M428.488 171.144C442.138 152.454 454.178 135.214 463.718 115.494C468.538 105.534 472.108 95.514 474.428 85.434C475.188 82.134 475.598 82.174 475.658 85.554C475.798 93.9474 475.371 101.811 474.378 109.144C472.578 122.397 468.354 135.457 461.708 148.324C453.128 164.924 437.848 177.264 422.088 186.634C418.878 188.544 415.948 190.834 412.968 193.034C410.894 194.567 410.701 194.357 412.388 192.404C415.041 189.331 417.711 186.067 420.398 182.614C423.328 178.854 425.728 174.934 428.488 171.144Z" fill="#363433"/>
<path d="M363.218 104.314C363.051 104.741 362.954 105.167 362.928 105.594C362.228 117.467 361.394 129.507 360.428 141.714C360.421 141.767 360.394 141.794 360.348 141.794L360.078 141.784C359.911 141.784 359.824 141.701 359.818 141.534C359.251 130.174 358.994 118.391 359.048 106.184C359.061 103.084 359.178 100.227 359.398 97.6141C359.418 97.4152 359.513 97.2314 359.663 97.0996C359.813 96.9679 360.008 96.898 360.208 96.9041C373.288 97.3774 385.201 100.441 395.948 106.094C398.674 107.527 400.348 109.577 400.968 112.244C401 112.382 400.994 112.527 400.952 112.662C400.91 112.798 400.832 112.92 400.727 113.015C400.623 113.111 400.494 113.177 400.355 113.207C400.217 113.236 400.072 113.229 399.938 113.184C398.368 112.644 396.748 112.344 395.228 111.704C384.988 107.404 375.598 101.974 364.308 103.444C364.063 103.477 363.833 103.576 363.641 103.729C363.449 103.882 363.303 104.084 363.218 104.314Z" fill="#D23A2E"/>
<path d="M566.878 108.684L570.158 105.194C570.455 104.875 570.84 104.651 571.263 104.55C571.687 104.448 572.132 104.474 572.541 104.623C572.951 104.772 573.307 105.039 573.566 105.389C573.825 105.74 573.975 106.159 573.998 106.594L574.168 109.994C574.188 110.355 574.119 110.716 573.968 111.044L570.568 118.434C570.357 118.895 569.996 119.271 569.543 119.498C569.089 119.725 568.572 119.79 568.077 119.683C567.582 119.575 567.138 119.301 566.82 118.907C566.502 118.512 566.328 118.021 566.328 117.514L566.278 110.224C566.272 109.653 566.487 109.101 566.878 108.684Z" fill="#E4AE39"/>
<path d="M144.828 107.764C146.298 111.754 148.948 115.874 145.608 119.814C145.188 120.307 144.771 120.304 144.358 119.804C141.318 116.177 139.371 111.987 138.518 107.234C138.428 106.738 138.535 106.226 138.814 105.807C139.094 105.387 139.525 105.092 140.018 104.984C142.351 104.464 143.954 105.391 144.828 107.764Z" fill="#E4AE39"/>
<path d="M139.248 124.714C142.138 127.444 143.238 132.504 139.668 135.234C135.748 138.244 128.408 138.414 124.338 137.354C122.164 136.787 120.504 135.344 119.358 133.024C117.418 129.114 120.448 124.834 123.618 122.634C128.638 119.134 134.908 120.604 139.248 124.714Z" fill="#E4AE39"/>
<path d="M587.608 137.614C583.028 139.374 578.384 139.217 573.678 137.144C569.428 135.274 569.748 131.104 571.568 127.724C573.378 124.354 578.228 120.674 582.408 120.834C588.138 121.044 594.268 125.454 593.358 131.614C592.958 134.294 591.041 136.294 587.608 137.614Z" fill="#E4AE39"/>
<path d="M123.728 153.254L123.768 155.474C123.794 156.547 123.288 156.941 122.248 156.654C115.288 154.754 112.538 149.474 112.218 142.294C112.128 140.294 113.538 138.834 115.458 138.454C116.218 138.301 116.738 138.587 117.018 139.314C118.048 142.004 118.238 145.004 118.838 147.794C119.188 149.474 120.618 150.724 122.178 151.204C123.184 151.517 123.701 152.201 123.728 153.254Z" fill="#E4AE39"/>
<path d="M600.178 146.974C599.568 151.324 595.718 154.364 592.058 156.244C591.338 156.611 590.588 156.781 589.808 156.754C589.649 156.747 589.495 156.7 589.359 156.618C589.224 156.535 589.111 156.42 589.032 156.282C588.953 156.144 588.911 155.989 588.908 155.83C588.906 155.671 588.943 155.514 589.018 155.374C591.564 150.621 593.918 146.207 596.078 142.134C596.604 141.147 597.328 140.361 598.248 139.774C598.461 139.641 598.704 139.564 598.955 139.55C599.206 139.536 599.456 139.585 599.683 139.694C599.909 139.803 600.105 139.967 600.251 140.172C600.397 140.376 600.489 140.614 600.518 140.864C600.758 142.924 600.468 144.944 600.178 146.974Z" fill="#E4AE39"/>
<path d="M568.848 143.834L563.438 147.664C563.096 147.908 562.675 148.015 562.258 147.964L556.978 147.294C556.635 147.253 556.312 147.107 556.055 146.876C555.798 146.645 555.619 146.34 555.541 146.003C555.463 145.667 555.491 145.314 555.622 144.994C555.752 144.674 555.977 144.401 556.268 144.214L561.608 140.724C561.913 140.525 562.274 140.43 562.638 140.454L567.978 140.784C568.326 140.804 568.658 140.932 568.93 141.15C569.202 141.368 569.399 141.665 569.495 142C569.591 142.335 569.58 142.692 569.464 143.02C569.348 143.349 569.132 143.633 568.848 143.834Z" fill="#E4AE39"/>
<path d="M151.483 148.206C156 148.987 159.91 148.181 160.217 146.407C160.523 144.633 157.11 142.562 152.593 141.782C148.076 141.001 144.165 141.807 143.859 143.581C143.552 145.356 146.966 147.426 151.483 148.206Z" fill="#E4AE39"/>
<path d="M540.798 153.904L550.598 147.744C550.637 147.719 550.682 147.703 550.728 147.697C550.774 147.69 550.821 147.693 550.866 147.705C550.911 147.717 550.953 147.738 550.989 147.767C551.026 147.797 551.056 147.833 551.078 147.874L553.988 153.214C554.029 153.29 554.039 153.379 554.017 153.463C553.995 153.546 553.941 153.618 553.868 153.664L542.868 160.714C542.823 160.743 542.771 160.76 542.718 160.765C542.665 160.77 542.612 160.763 542.562 160.743C542.513 160.724 542.468 160.693 542.433 160.653C542.397 160.613 542.371 160.566 542.358 160.514L540.658 154.274C540.64 154.205 540.643 154.133 540.668 154.067C540.693 154 540.739 153.943 540.798 153.904Z" fill="#E4AE39"/>
<path d="M164.868 150.094C165.314 149.934 165.744 149.967 166.158 150.194L174.778 154.944C176.764 156.031 176.784 157.154 174.838 158.314C174.724 158.381 174.611 158.451 174.498 158.524C172.571 159.784 170.524 160.027 168.358 159.254C164.291 157.801 161.958 155.454 161.358 152.214C161.318 151.992 161.357 151.764 161.469 151.568C161.58 151.373 161.757 151.223 161.968 151.144L164.868 150.094Z" fill="#E4AE39"/>
<path d="M534.508 165.664L524.538 171.904C524.501 171.928 524.459 171.943 524.415 171.949C524.371 171.955 524.327 171.951 524.285 171.937C524.243 171.924 524.204 171.902 524.172 171.872C524.14 171.842 524.114 171.805 524.098 171.764L521.758 166.394C521.73 166.329 521.725 166.257 521.745 166.189C521.765 166.121 521.809 166.063 521.868 166.024L533.808 158.044C533.852 158.013 533.904 157.995 533.958 157.992C534.012 157.988 534.066 157.999 534.114 158.024C534.162 158.049 534.203 158.086 534.232 158.132C534.261 158.177 534.276 158.23 534.278 158.284L534.648 165.394C534.651 165.447 534.639 165.501 534.614 165.548C534.59 165.596 534.553 165.636 534.508 165.664Z" fill="#E4AE39"/>
<path d="M183.838 161.614L192.428 167.304C192.761 167.524 193.029 167.831 193.201 168.191C193.374 168.552 193.445 168.952 193.407 169.35C193.369 169.748 193.223 170.128 192.986 170.45C192.748 170.771 192.427 171.021 192.058 171.174L189.288 172.324C188.932 172.473 188.543 172.525 188.16 172.476C187.778 172.427 187.415 172.278 187.108 172.044L179.068 165.934C178.749 165.692 178.502 165.367 178.354 164.994C178.206 164.622 178.163 164.216 178.229 163.821C178.295 163.426 178.467 163.056 178.728 162.752C178.989 162.447 179.327 162.22 179.708 162.094L181.938 161.354C182.253 161.251 182.588 161.221 182.917 161.266C183.247 161.311 183.561 161.43 183.838 161.614Z" fill="#E4AE39"/>
<path d="M516.298 177.204L505.858 183.144C505.784 183.186 505.701 183.208 505.617 183.211C505.532 183.213 505.448 183.195 505.372 183.157C505.297 183.12 505.231 183.064 505.181 182.996C505.132 182.927 505.1 182.848 505.088 182.764L504.328 177.874C504.313 177.776 504.328 177.676 504.368 177.585C504.409 177.495 504.475 177.418 504.558 177.364L515.888 169.954C515.966 169.904 516.057 169.876 516.151 169.873C516.244 169.869 516.336 169.892 516.418 169.937C516.5 169.982 516.568 170.048 516.616 170.128C516.663 170.209 516.688 170.301 516.688 170.394L516.568 176.754C516.567 176.846 516.541 176.937 516.494 177.016C516.446 177.095 516.379 177.16 516.298 177.204Z" fill="#E4AE39"/>
<path d="M201.941 181.806C205.791 183.75 209.605 183.956 210.459 182.265C211.313 180.575 208.884 177.627 205.034 175.682C201.184 173.738 197.371 173.532 196.517 175.223C195.662 176.914 198.091 179.861 201.941 181.806Z" fill="#E4AE39"/>
<path d="M487.838 187.934L496.988 181.624C497.085 181.558 497.198 181.518 497.315 181.508C497.432 181.498 497.55 181.519 497.657 181.568C497.764 181.618 497.856 181.694 497.924 181.79C497.993 181.885 498.035 181.997 498.048 182.114L498.708 188.324C498.72 188.449 498.698 188.575 498.643 188.688C498.588 188.801 498.503 188.896 498.398 188.964L488.488 195.394C488.384 195.462 488.263 195.499 488.139 195.503C488.015 195.507 487.892 195.477 487.784 195.417C487.676 195.356 487.587 195.267 487.526 195.159C487.465 195.051 487.434 194.928 487.438 194.804L487.538 188.484C487.54 188.375 487.568 188.268 487.621 188.172C487.673 188.077 487.747 187.995 487.838 187.934Z" fill="#E4AE39"/>
<path d="M218.673 193.092C222.311 194.906 226.005 194.882 226.924 193.038C227.844 191.194 225.64 188.23 222.002 186.416C218.364 184.602 214.67 184.626 213.751 186.47C212.832 188.314 215.036 191.278 218.673 193.092Z" fill="#E4AE39"/>
<path d="M481.328 200.024L472.938 205.514C472.89 205.546 472.835 205.564 472.777 205.568C472.72 205.571 472.663 205.56 472.611 205.534C472.56 205.509 472.516 205.471 472.484 205.424C472.452 205.376 472.432 205.321 472.428 205.264L471.828 198.654C471.823 198.596 471.833 198.538 471.857 198.485C471.882 198.433 471.92 198.387 471.968 198.354L480.958 192.014C481.007 191.979 481.065 191.959 481.126 191.955C481.186 191.951 481.246 191.963 481.3 191.991C481.353 192.019 481.398 192.061 481.43 192.113C481.461 192.164 481.478 192.224 481.478 192.284V199.744C481.478 199.8 481.465 199.854 481.439 199.903C481.412 199.952 481.374 199.994 481.328 200.024Z" fill="#E4AE39"/>
<path d="M233.96 203.538C236.708 205.654 240.009 205.975 241.333 204.256C242.658 202.536 241.504 199.427 238.756 197.31C236.008 195.194 232.706 194.873 231.382 196.592C230.058 198.312 231.212 201.422 233.96 203.538Z" fill="#E4AE39"/>
<path d="M454.218 239.554C452.938 236.641 451.664 233.814 450.398 231.074C446.478 222.554 439.928 216.254 431.498 212.134C431.064 211.921 430.934 211.587 431.108 211.134C434.198 203.174 444.098 208.514 447.518 212.624C449.571 215.091 449.911 214.874 448.538 211.974C447.531 209.847 446.281 207.617 444.788 205.284C444.521 204.871 444.401 204.351 444.428 203.724C444.434 203.577 444.478 203.434 444.555 203.309C444.632 203.183 444.739 203.078 444.868 203.004C447.294 201.637 450.031 200.701 453.078 200.194C453.424 200.134 453.604 200.281 453.618 200.634C454.444 221.167 463.734 236.667 481.488 247.134C485.141 249.287 489.221 251.517 493.728 253.824C495.021 254.484 494.944 254.871 493.498 254.984C483.418 255.774 459.488 256.294 458.798 270.514C458.478 277.044 459.248 284.714 460.368 291.304C461.714 299.191 463.211 307.111 464.858 315.064C465.064 316.051 464.848 316.154 464.208 315.374C463.001 313.907 462.071 312.187 461.418 310.214C458.704 302.027 456.628 293.811 455.188 285.564C455.169 285.454 455.12 285.352 455.047 285.268C454.974 285.183 454.879 285.121 454.773 285.087C454.667 285.053 454.553 285.049 454.445 285.075C454.336 285.101 454.237 285.156 454.158 285.234C453.624 285.747 453.291 286.411 453.158 287.224C451.298 298.617 451.638 309.601 454.178 320.174C455.678 326.394 456.854 332.097 457.708 337.284C458.678 343.184 453.028 343.774 448.918 342.524C429.488 336.624 424.818 321.294 418.068 304.344C411.374 287.544 400.328 275.567 384.928 268.414C381.694 266.907 378.371 265.434 374.958 263.994C373.911 263.554 373.711 262.867 374.358 261.934C375.058 260.921 375.941 260.157 377.008 259.644C377.314 259.497 377.638 259.457 377.978 259.524C393.618 262.664 405.988 270.634 417.448 281.124C419.548 283.044 419.861 282.787 418.388 280.354C413.538 272.364 406.768 264.134 398.708 259.334C398.361 259.127 398.384 258.997 398.778 258.944C402.258 258.424 405.054 257.591 407.168 256.444C420.121 249.411 429.271 239.054 434.618 225.374C434.878 224.714 435.311 224.567 435.918 224.934C442.278 228.761 448.111 233.797 453.418 240.044C454.818 241.697 455.084 241.534 454.218 239.554ZM438.138 239.204C437.288 238.994 436.408 238.924 435.688 239.534C429.778 244.564 427.228 253.304 427.638 260.814C427.988 267.414 431.698 276.064 438.118 278.844C438.804 279.144 438.961 278.971 438.588 278.324C434.038 270.514 431.678 263.714 433.368 254.184C434.174 249.664 435.784 245.494 438.198 241.674C438.551 241.107 438.718 240.514 438.698 239.894C438.684 239.521 438.498 239.291 438.138 239.204ZM439.168 308.304C438.118 316.844 442.158 325.934 447.868 331.854C448.528 332.541 448.684 332.441 448.338 331.554C446.398 326.584 444.958 321.194 444.658 315.824C444.271 308.917 444.498 301.294 445.338 292.954C445.531 291.054 445.954 289.351 446.608 287.844C447.128 286.637 446.991 286.554 446.198 287.594C442.108 292.894 439.958 301.804 439.168 308.304Z" fill="#ECDCC3"/>
<path d="M293.568 281.344C297.638 277.934 301.738 274.334 306.028 271.344C313.101 266.411 321.831 262.411 332.218 259.344C333.518 258.957 334.744 259.121 335.898 259.834C336.751 260.367 337.541 260.954 338.268 261.594C339.161 262.374 339.054 262.977 337.948 263.404C318.598 270.734 304.008 280.904 296.118 301.014C294.871 304.187 293.708 307.407 292.628 310.674C290.128 318.244 286.518 325.594 281.698 331.464C276.328 337.994 267.868 343.264 259.188 342.684C254.588 342.374 253.538 338.544 254.498 334.744C256.518 326.691 258.201 319.177 259.548 312.204C261.518 301.994 260.668 293.204 259.368 283.454C259.361 283.367 259.321 283.284 259.248 283.204C259.181 283.131 259.088 283.124 258.968 283.184C258.868 283.231 258.808 283.314 258.788 283.434C256.898 294.414 254.298 304.724 248.108 314.084C246.188 316.991 245.774 316.794 246.868 313.494C251.561 299.367 254.251 285.811 254.938 272.824C255.728 257.914 233.628 255.784 223.538 255.144C222.098 255.057 220.721 254.781 219.408 254.314C218.534 254.007 218.528 253.684 219.388 253.344C233.938 247.594 248.878 236.124 254.818 221.284C257.518 214.517 259.208 207.841 259.888 201.254C259.908 201.041 260.021 200.967 260.228 201.034L267.918 203.634C268.006 203.665 268.087 203.716 268.152 203.783C268.218 203.85 268.266 203.932 268.295 204.021C268.323 204.11 268.33 204.205 268.315 204.298C268.299 204.39 268.263 204.478 268.208 204.554C266.781 206.507 265.764 208.651 265.158 210.984C265.058 211.357 265.074 211.724 265.208 212.084C265.236 212.156 265.281 212.22 265.339 212.272C265.397 212.323 265.466 212.36 265.54 212.381C265.615 212.401 265.693 212.404 265.769 212.389C265.845 212.374 265.917 212.341 265.978 212.294L271.918 207.714C272.304 207.421 272.728 207.351 273.188 207.504L281.548 210.324C282.101 210.511 282.141 210.777 281.668 211.124C275.538 215.624 268.798 218.604 265.408 225.384C263.014 230.164 260.731 234.697 258.558 238.984C257.751 240.584 257.984 240.751 259.258 239.484C263.078 235.684 266.808 232.114 270.448 228.774C272.501 226.901 274.814 225.501 277.388 224.574C277.636 224.486 277.909 224.499 278.148 224.609C278.387 224.719 278.573 224.918 278.668 225.164C283.321 237.217 291.354 246.674 302.768 253.534C305.854 255.387 309.688 256.924 314.268 258.144C314.293 258.151 314.317 258.166 314.335 258.185C314.353 258.205 314.366 258.228 314.371 258.254C314.376 258.279 314.374 258.305 314.365 258.328C314.355 258.351 314.339 258.37 314.318 258.384C308.218 262.864 302.564 268.184 297.358 274.344C295.471 276.584 294.064 278.814 293.138 281.034C292.851 281.727 292.994 281.831 293.568 281.344ZM279.758 242.774C277.888 240.464 274.708 239.154 271.718 239.274C271.653 239.275 271.591 239.295 271.538 239.332C271.485 239.368 271.443 239.419 271.419 239.479C271.395 239.538 271.388 239.603 271.4 239.667C271.413 239.73 271.443 239.788 271.488 239.834C277.114 245.794 279.834 252.504 279.648 259.964C279.474 267.224 277.288 273.691 273.088 279.364C272.294 280.444 272.478 280.647 273.638 279.974C277.848 277.524 280.048 273.864 282.238 269.634C283.484 267.227 284.314 265.084 284.728 263.204C286.368 255.697 284.711 248.887 279.758 242.774ZM271.328 320.214C273.314 315.147 273.811 309.914 272.818 304.514C271.651 298.174 269.344 291.811 265.898 285.424C265.551 284.777 265.471 284.807 265.658 285.514C267.451 292.454 268.264 299.561 268.098 306.834C267.884 315.874 266.571 324.697 264.158 333.304C263.964 334.004 264.068 334.054 264.468 333.454C267.128 329.514 269.414 325.101 271.328 320.214Z" fill="#ECDCC3"/>
<path d="M335.426 222.562C335.998 228.965 337.402 234.072 338.562 233.968C339.723 233.864 340.201 228.59 339.629 222.186C339.058 215.783 337.654 210.677 336.493 210.78C335.332 210.884 334.855 216.158 335.426 222.562Z" fill="#363433"/>
<path d="M319.858 238.334C322.098 240.094 324.624 241.361 327.438 242.134C327.553 242.166 327.657 242.23 327.738 242.318C327.819 242.407 327.873 242.516 327.895 242.634C327.917 242.751 327.905 242.873 327.862 242.984C327.818 243.096 327.744 243.193 327.648 243.264C321.458 247.864 311.268 246.984 304.658 244.084C295.978 240.274 287.478 231.544 288.948 221.514C288.982 221.275 289.083 221.05 289.238 220.864C289.393 220.679 289.597 220.541 289.827 220.465C290.056 220.389 290.302 220.379 290.538 220.435C290.773 220.491 290.987 220.612 291.158 220.784C295.628 225.284 299.238 230.494 305.378 233.464C310.438 235.914 314.458 232.414 318.258 229.674C318.538 229.467 318.851 229.394 319.198 229.454C320.084 229.621 320.908 230.014 321.668 230.634C321.956 230.871 322.154 231.201 322.229 231.566C322.303 231.932 322.25 232.313 322.078 232.644L319.648 237.334C319.561 237.499 319.534 237.689 319.572 237.872C319.611 238.055 319.712 238.218 319.858 238.334Z" fill="white"/>
<path d="M393.608 238.674L390.158 234.844C389.847 234.495 389.65 234.059 389.594 233.596C389.539 233.133 389.627 232.664 389.848 232.254L392.168 227.964C392.634 227.091 393.164 227.054 393.758 227.854C398.028 233.614 403.468 236.174 410.578 232.454C415.168 230.044 417.758 226.264 420.858 222.284C421.711 221.191 422.804 220.704 424.138 220.824C424.43 220.853 424.704 220.982 424.91 221.188C425.117 221.395 425.243 221.666 425.268 221.954C426.288 232.844 414.568 242.994 405.448 245.864C399.821 247.631 394.398 247.591 389.178 245.744C387.438 245.124 386.558 244.021 386.538 242.434C386.508 239.064 390.928 239.304 393.298 239.344C393.377 239.347 393.455 239.327 393.522 239.285C393.589 239.244 393.643 239.184 393.676 239.112C393.709 239.041 393.72 238.961 393.708 238.883C393.696 238.805 393.661 238.732 393.608 238.674Z" fill="white"/>
<path d="M438.138 239.204C438.498 239.291 438.684 239.521 438.698 239.894C438.718 240.514 438.551 241.107 438.198 241.674C435.784 245.494 434.174 249.664 433.368 254.184C431.678 263.714 434.038 270.514 438.588 278.324C438.961 278.971 438.804 279.144 438.118 278.844C431.698 276.064 427.988 267.414 427.638 260.814C427.228 253.304 429.778 244.564 435.688 239.534C436.408 238.924 437.288 238.994 438.138 239.204Z" fill="#363433"/>
<path d="M271.718 239.274C274.708 239.154 277.888 240.464 279.758 242.774C284.711 248.887 286.368 255.697 284.728 263.204C284.314 265.084 283.484 267.227 282.238 269.634C280.048 273.864 277.848 277.524 273.638 279.974C272.478 280.647 272.294 280.444 273.088 279.364C277.288 273.691 279.474 267.224 279.648 259.964C279.834 252.504 277.114 245.794 271.488 239.834C271.443 239.788 271.412 239.73 271.4 239.667C271.388 239.603 271.395 239.538 271.419 239.479C271.443 239.419 271.485 239.368 271.538 239.332C271.591 239.295 271.653 239.275 271.718 239.274Z" fill="#363433"/>
<path d="M508.798 303.494C510.058 304.144 511.128 305.134 512.318 305.884C520.118 310.834 528.048 316.024 536.078 320.634C547.731 327.327 559.458 334.374 571.258 341.774C571.42 341.875 571.555 342.015 571.649 342.183C571.743 342.351 571.794 342.54 571.798 342.734C571.811 343.581 571.378 343.854 570.498 343.554C560.808 340.264 552.508 336.074 542.818 330.294C523.911 319.021 503.168 305.377 480.588 289.364C477.668 287.291 474.924 285.004 472.358 282.504C472.071 282.224 471.894 281.891 471.828 281.504C471.809 281.408 471.817 281.309 471.85 281.217C471.884 281.125 471.942 281.044 472.018 280.982C472.094 280.921 472.185 280.881 472.282 280.867C472.379 280.853 472.478 280.866 472.568 280.904C473.921 281.477 475.231 282.157 476.498 282.944C486.564 289.184 496.304 295.431 505.718 301.684C506.691 302.331 507.718 302.934 508.798 303.494Z" fill="#E4AE39"/>
<path d="M189.868 318.374C179.414 325.021 169.824 330.834 161.098 335.814C154.258 339.714 146.308 342.364 138.898 345.254C138.518 345.401 138.121 345.444 137.708 345.384C137.201 345.304 137.154 345.107 137.568 344.794C141.128 342.134 144.548 339.817 147.828 337.844C161.414 329.651 175.731 321.037 190.778 312.004C196.291 308.697 201.964 305.197 207.798 301.504C215.044 296.924 221.418 292.804 226.918 289.144C231.298 286.224 235.744 283.654 240.258 281.434C240.39 281.369 240.538 281.339 240.688 281.346C240.838 281.353 240.986 281.397 241.118 281.474C241.931 281.954 241.928 282.587 241.108 283.374C240.161 284.274 239.171 285.094 238.138 285.834C223.218 296.561 207.128 307.407 189.868 318.374Z" fill="#E4AE39"/>
<path d="M271.328 320.214C269.414 325.101 267.128 329.514 264.468 333.454C264.068 334.054 263.964 334.004 264.158 333.304C266.571 324.697 267.884 315.874 268.098 306.834C268.264 299.561 267.451 292.454 265.658 285.514C265.471 284.807 265.551 284.777 265.898 285.424C269.344 291.811 271.651 298.174 272.818 304.514C273.811 309.914 273.314 315.147 271.328 320.214Z" fill="#363433"/>
<path d="M447.868 331.854C442.158 325.934 438.118 316.844 439.168 308.304C439.958 301.804 442.108 292.894 446.198 287.594C446.991 286.554 447.128 286.637 446.608 287.844C445.954 289.351 445.531 291.054 445.338 292.954C444.498 301.294 444.271 308.917 444.658 315.824C444.958 321.194 446.398 326.584 448.338 331.554C448.684 332.441 448.528 332.541 447.868 331.854Z" fill="#363433"/>
<path d="M380.518 306.004C373.658 306.917 367.744 307.974 362.778 309.174C360.258 309.781 357.761 309.994 355.288 309.814C351.408 309.527 348.438 309.017 346.378 308.284C339.458 305.834 333.958 304.764 327.068 304.254C326.248 304.194 326.201 303.977 326.928 303.604C331.168 301.414 337.298 302.254 342.498 303.434C346.124 304.254 349.768 305.147 353.428 306.114C355.908 306.774 358.498 306.434 360.968 305.764C369.898 303.334 378.098 302.434 386.968 304.524C387.139 304.563 387.296 304.65 387.422 304.773C387.547 304.897 387.636 305.053 387.678 305.224C387.684 305.257 387.674 305.287 387.648 305.314C387.601 305.354 387.548 305.374 387.488 305.374C385.488 305.434 383.164 305.644 380.518 306.004Z" fill="white"/>
<path d="M554.468 350.394C543.458 348.404 533.088 343.974 522.728 339.004C511.661 333.691 501.404 328.377 491.958 323.064C485.844 319.617 479.991 315.864 474.398 311.804C474.325 311.751 474.27 311.677 474.239 311.592C474.209 311.507 474.205 311.415 474.228 311.328C474.25 311.24 474.299 311.162 474.366 311.102C474.434 311.043 474.518 311.005 474.608 310.994C474.888 310.967 475.144 311.017 475.378 311.144C498.584 323.211 522.454 332.901 546.988 340.214C553.548 342.164 559.998 343.934 566.208 347.114C569.054 348.574 571.881 349.964 574.688 351.284C576.341 352.057 576.258 352.434 574.438 352.414C568.144 352.334 561.488 351.661 554.468 350.394Z" fill="#E4AE39"/>
<path d="M168.718 339.384L172.728 337.974C173.194 337.941 174.274 337.624 175.968 337.024C193.928 330.631 208.671 324.894 220.198 319.814C225.928 317.284 231.408 314.144 237.118 311.434C237.444 311.281 237.698 311.357 237.878 311.664C237.991 311.851 238.014 312.044 237.948 312.244C237.901 312.384 237.828 312.514 237.728 312.634C237.088 313.374 236.361 314.017 235.548 314.564C233.868 315.684 232.088 316.844 230.208 318.044C228.341 319.231 226.504 320.327 224.698 321.334C208.338 330.434 191.891 338.601 175.358 345.834C173.044 346.841 169.921 347.944 165.988 349.144C162.654 350.164 159.498 350.814 156.518 351.094C150.331 351.667 144.074 352.281 137.748 352.934C137.468 352.961 137.291 352.837 137.218 352.564C137.186 352.453 137.194 352.335 137.24 352.23C137.285 352.124 137.366 352.037 137.468 351.984C145.028 348.034 152.058 344.554 160.048 342.134C162.968 341.247 165.858 340.331 168.718 339.384Z" fill="#E4AE39"/>
<path d="M355.598 351.324C354.248 356.614 353.588 362.714 350.148 367.094C349.921 367.387 349.621 367.547 349.248 367.574C344.368 367.884 338.138 360.784 335.388 357.464C333.898 355.664 328.968 355.244 326.778 354.874C319.328 353.614 312.458 348.844 307.888 342.924C302.098 335.434 302.658 326.094 310.348 320.244C318.958 313.694 329.598 312.424 340.138 312.554C352.284 312.701 364.228 312.831 375.968 312.944C382.768 313.011 389.178 313.957 395.198 315.784C405.948 319.054 411.928 330.214 406.068 340.614C402.098 347.674 395.218 352.284 387.738 355.354C386.891 355.701 386.131 355.524 385.458 354.824C385.121 354.474 384.667 354.259 384.182 354.221C383.698 354.182 383.216 354.322 382.828 354.614C379.621 357.021 376.431 359.791 373.258 362.924C370.828 365.334 364.248 370.114 361.638 365.524C359.058 360.994 358.028 356.094 356.548 351.304C356.201 350.191 355.884 350.197 355.598 351.324ZM377.068 327.004C375.708 326.224 374.198 325.384 372.668 325.124C360.428 323.124 348.121 323.477 335.748 326.184C335.008 326.344 334.591 326.051 334.498 325.304L334.228 323.074C334.114 322.167 334.488 321.554 335.348 321.234C338.468 320.094 341.474 319.354 344.368 319.014C352.894 318.021 361.931 318.187 371.478 319.514C372.204 319.621 372.948 319.584 373.708 319.404C374.881 319.124 374.874 318.881 373.688 318.674C366.548 317.394 359.414 316.834 352.288 316.994C346.748 317.121 340.701 318.277 334.148 320.464C328.328 322.414 324.538 325.974 321.728 331.224C319.698 335.014 324.338 337.664 327.218 338.014C327.432 338.039 327.649 338.02 327.856 337.958C328.062 337.896 328.253 337.793 328.418 337.654C340.978 327.124 360.308 325.994 375.338 331.874C377.424 332.694 379.238 333.827 380.778 335.274C382.538 336.924 385.008 337.204 387.298 337.414C388.978 337.561 390.104 336.751 390.678 334.984C392.628 328.924 389.018 323.494 385.138 319.154C385.051 319.054 384.958 319.044 384.858 319.124L384.608 319.324C384.601 319.329 384.595 319.335 384.59 319.343C384.586 319.35 384.583 319.358 384.582 319.367C384.581 319.375 384.582 319.384 384.585 319.392C384.588 319.4 384.592 319.408 384.598 319.414C386.744 321.854 387.511 324.214 386.898 326.494C386.511 327.947 385.988 327.997 385.328 326.644C384.841 325.644 384.331 324.724 383.798 323.884C382.108 321.244 377.608 321.034 374.718 321.174C374.646 321.179 374.577 321.204 374.519 321.247C374.461 321.29 374.416 321.348 374.39 321.415C374.364 321.482 374.357 321.555 374.371 321.626C374.385 321.696 374.418 321.762 374.468 321.814C375.741 323.114 376.738 324.734 377.458 326.674C377.638 327.147 377.508 327.257 377.068 327.004Z" fill="#ECDCC3"/>
<path d="M117.118 316.254C117.311 316.634 117.451 317.014 117.538 317.394C119.218 324.687 120.988 331.231 122.848 337.024C124.721 342.864 127.148 348.294 130.128 353.314C135.901 363.027 143.431 373.084 152.718 383.484C153.984 384.904 154.348 386.537 153.808 388.384C153.568 389.231 152.644 389.411 151.038 388.924C150.665 388.806 150.329 388.589 150.068 388.294C139.068 375.854 129.398 362.864 122.378 347.894C117.698 337.927 115.384 327.254 115.438 315.874C115.438 315.696 115.509 315.526 115.637 315.4C115.764 315.275 115.937 315.204 116.118 315.204C116.331 315.204 116.504 315.291 116.638 315.464C116.824 315.704 116.984 315.967 117.118 316.254Z" fill="#D23A2E"/>
<path d="M595.918 317.324C596.031 316.824 596.351 316.461 596.878 316.234C596.956 316.201 597.041 316.186 597.125 316.189C597.21 316.191 597.294 316.213 597.369 316.251C597.445 316.289 597.512 316.342 597.566 316.409C597.619 316.475 597.657 316.552 597.678 316.634C598.598 320.214 597.328 326.074 596.248 329.964C589.914 352.717 578.491 372.287 561.978 388.674C561.171 389.474 560.534 389.357 560.068 388.324C559.981 388.137 559.921 387.941 559.888 387.734C559.767 387.018 559.815 386.283 560.028 385.588C560.242 384.894 560.615 384.259 561.118 383.734C566.738 377.881 571.248 372.574 574.648 367.814C582.581 356.694 588.681 343.751 592.948 328.984C593.961 325.457 594.951 321.571 595.918 317.324Z" fill="#D23A2E"/>
<path d="M377.458 326.674C376.738 324.734 375.741 323.114 374.468 321.814C374.418 321.762 374.385 321.696 374.371 321.626C374.357 321.555 374.364 321.482 374.39 321.415C374.416 321.348 374.461 321.29 374.519 321.247C374.577 321.204 374.646 321.179 374.718 321.174C377.608 321.034 382.108 321.244 383.798 323.884C384.331 324.724 384.841 325.644 385.328 326.644C385.988 327.997 386.511 327.947 386.898 326.494C387.511 324.214 386.744 321.854 384.598 319.414C384.592 319.408 384.587 319.4 384.585 319.392C384.582 319.384 384.581 319.375 384.582 319.367C384.583 319.358 384.586 319.35 384.59 319.343C384.595 319.335 384.601 319.329 384.608 319.324L384.858 319.124C384.958 319.044 385.051 319.054 385.138 319.154C389.018 323.494 392.628 328.924 390.678 334.984C390.104 336.751 388.978 337.561 387.298 337.414C385.008 337.204 382.538 336.924 380.778 335.274C379.238 333.827 377.424 332.694 375.338 331.874C360.308 325.994 340.978 327.124 328.418 337.654C328.253 337.793 328.062 337.896 327.856 337.958C327.649 338.02 327.432 338.039 327.218 338.014C324.338 337.664 319.698 335.014 321.728 331.224C324.538 325.974 328.328 322.414 334.148 320.464C340.701 318.277 346.748 317.121 352.288 316.994C359.414 316.834 366.548 317.394 373.688 318.674C374.874 318.881 374.881 319.124 373.708 319.404C372.948 319.584 372.204 319.621 371.478 319.514C361.931 318.187 352.894 318.021 344.368 319.014C341.474 319.354 338.468 320.094 335.348 321.234C334.488 321.554 334.114 322.167 334.228 323.074L334.498 325.304C334.591 326.051 335.008 326.344 335.748 326.184C348.121 323.477 360.428 323.124 372.668 325.124C374.198 325.384 375.708 326.224 377.068 327.004C377.508 327.257 377.638 327.147 377.458 326.674Z" fill="#363433"/>
<path d="M49.2177 352.714C53.5377 338.504 71.0277 332.314 84.3877 335.754C87.9144 336.661 87.8644 337.287 84.2378 337.634C76.0878 338.414 68.7778 340.394 61.7878 344.884C57.9944 347.324 54.1744 350.444 50.3277 354.244C49.6011 354.964 49.1477 354.821 48.9677 353.814C48.9477 353.694 49.0311 353.327 49.2177 352.714Z" fill="#D23A2E"/>
<path d="M642.368 340.074C637.808 338.634 632.781 337.861 627.288 337.754C627.222 337.752 627.16 337.726 627.114 337.681C627.067 337.637 627.04 337.577 627.038 337.514L627.018 337.264C627.007 337.131 627.044 337 627.122 336.895C627.199 336.789 627.312 336.718 627.438 336.694C631.918 335.824 636.468 335.144 640.958 335.714C650.531 336.927 657.954 342.064 663.228 351.124C663.614 351.791 663.561 352.427 663.068 353.034C662.814 353.347 662.508 353.414 662.148 353.234C660.974 352.641 660.021 351.954 659.288 351.174C654.154 345.721 648.514 342.021 642.368 340.074Z" fill="#D23A2E"/>
<path d="M172.728 337.974L168.718 339.384C169.844 338.677 171.181 338.207 172.728 337.974Z" fill="#D23A2E"/>
<path d="M75.3676 357.394C62.5876 364.274 50.731 373.157 39.7976 384.044C31.631 392.184 23.3943 400.497 15.0876 408.984C14.3876 409.704 14.1076 409.567 14.2476 408.574C14.301 408.221 14.4143 407.884 14.5876 407.564C25.3276 387.854 42.3576 370.934 60.7176 358.214C68.0843 353.107 75.251 349.851 82.2177 348.444C89.6577 346.944 96.7277 349.684 103.758 351.464C106.378 352.124 109.038 352.324 111.688 352.704C113.554 352.971 113.601 353.424 111.828 354.064C108.248 355.344 104.298 355.294 100.658 354.144C95.8677 352.644 91.2876 351.854 86.3676 353.084C82.661 354.004 78.9943 355.441 75.3676 357.394Z" fill="#E4AE39"/>
<path d="M639.058 358.414C635.668 356.674 631.958 354.514 628.238 353.784C620.878 352.324 614.648 353.504 607.658 354.344C605.571 354.591 603.744 354.201 602.178 353.174C601.051 352.441 601.154 351.981 602.488 351.794C606.748 351.207 611.194 350.391 615.828 349.344C621.234 348.124 625.311 347.677 628.058 348.004C632.238 348.504 636.598 349.871 641.138 352.104C661.778 362.234 679.298 379.334 693.128 398.394C695.448 401.594 697.308 405.354 699.078 408.914C699.191 409.141 699.138 409.317 698.918 409.444C698.804 409.504 698.698 409.487 698.598 409.394C689.808 400.844 680.908 390.824 671.468 382.184C660.728 372.354 651.168 364.634 639.058 358.414Z" fill="#E4AE39"/>
<path d="M609.798 380.454C615.478 385.314 622.678 387.464 630.118 388.304C637.984 389.191 645.931 390.181 653.958 391.274C659.338 392.007 663.994 393.414 667.928 395.494C677.358 400.474 686.308 406.254 693.118 413.974C693.944 414.907 693.808 415.081 692.708 414.494C688.161 412.061 683.408 409.667 678.448 407.314C669.121 402.894 659.581 399.624 649.828 397.504C640.928 395.571 632.038 393.627 623.158 391.674C615.951 390.094 610.201 387.234 605.908 383.094C603.478 380.754 601.708 377.534 600.448 374.394C599.728 372.587 598.684 370.954 597.318 369.494C596.924 369.074 596.664 368.591 596.538 368.044C596.318 367.064 596.531 366.957 597.178 367.724C601.224 372.477 605.431 376.721 609.798 380.454Z" fill="white"/>
<path d="M56.5377 391.834C62.9643 391.047 70.751 390.111 79.8976 389.024C89.2476 387.914 98.1876 385.934 104.838 379.374C107.864 376.381 111.048 373.157 114.388 369.704C114.594 369.497 114.841 369.367 115.128 369.314C115.226 369.295 115.328 369.305 115.42 369.344C115.513 369.382 115.592 369.447 115.649 369.53C115.706 369.613 115.738 369.712 115.742 369.814C115.745 369.916 115.719 370.016 115.668 370.104C112.934 374.797 110.128 378.901 107.248 382.414C102.288 388.454 91.3476 391.724 83.8876 393.314C72.3676 395.784 60.6977 397.754 49.7877 401.704C40.141 405.197 30.6143 409.547 21.2077 414.754C20.1543 415.334 19.901 415.091 20.4476 414.024C20.6143 413.691 20.8243 413.394 21.0776 413.134C27.1776 406.994 35.291 401.177 45.4176 395.684C49.371 393.537 53.0777 392.254 56.5377 391.834Z" fill="white"/>
</svg>
